<svg width="220" height="178" viewBox="0 0 220 178" fill="none" xmlns="http://www.w3.org/2000/svg">
<path d="M59.1989 44.9863L61.0419 45.0924L63.0369 45.1889C64.3669 45.2372 65.7064 45.295 67.0459 45.3047C69.7154 45.3047 72.3754 45.3047 74.9689 45.1118C76.2609 45.0346 77.5529 44.9188 78.7689 44.7451C79.9849 44.5715 81.2674 44.4268 82.4454 44.1759C84.6422 43.7724 86.7849 43.1086 88.8294 42.1981L85.8939 45.4205C86.8439 43.655 87.7939 41.793 88.7439 39.8441C89.6939 37.8953 90.5394 35.8982 91.3754 33.8529C92.2114 31.8076 93.0759 29.743 93.9214 27.6591C94.7669 25.5752 95.6124 23.4334 96.4769 21.4073L96.5434 21.253C96.9142 20.4007 97.5615 19.7034 98.3774 19.2774C99.1933 18.8514 100.128 18.7225 101.027 18.9122C101.925 19.1018 102.732 19.5986 103.313 20.3196C103.894 21.0406 104.214 21.9421 104.219 22.8738C104.219 25.3725 104.058 27.6976 103.83 30.1289C103.602 32.5601 103.25 34.8948 102.88 37.2875C102.509 39.6801 101.93 42.0534 101.293 44.4364C100.643 46.882 99.8562 49.2881 98.9374 51.6432C98.463 52.8451 97.6203 53.8599 96.5339 54.5376L96.0019 54.8656C92.9327 56.7521 89.616 58.1878 86.1504 59.1299C82.9847 60.043 79.75 60.6884 76.4794 61.0594C73.3259 61.4296 70.1539 61.6132 66.9794 61.6093C65.4119 61.6093 63.8444 61.6093 62.2864 61.4839C61.4979 61.4357 60.7189 61.3874 59.9304 61.3199L58.7334 61.1945L57.4414 61.0498C55.3961 60.8016 53.5257 59.7562 52.225 58.1341C50.9243 56.512 50.2951 54.4402 50.4702 52.3558C50.6452 50.2715 51.6108 48.3378 53.1632 46.9628C54.7156 45.5878 56.7333 44.8791 58.7904 44.9863H59.1989Z" fill="#B55B52"/>
<path d="M42.0527 44.9092C49.1112 41.8701 67.4462 40.23 75.7207 48.6524C85.2207 58.358 107.84 60.8182 110.757 67.9478C105 75.1354 99.5847 85.7479 99.5847 85.7479C99.5847 85.7479 47.2112 55.184 42.0527 44.9092Z" fill="#263238"/>
<mask id="mask0_2443_91" style="mask-type:luminance" maskUnits="userSpaceOnUse" x="42" y="42" width="69" height="44">
<path d="M42.0527 44.9092C49.1112 41.8701 67.4462 40.23 75.7207 48.6524C85.2207 58.358 107.84 60.8182 110.757 67.9478C105 75.1354 99.5847 85.7479 99.5847 85.7479C99.5847 85.7479 47.2112 55.184 42.0527 44.9092Z" fill="white"/>
</mask>
<g mask="url(#mask0_2443_91)">
<path d="M88.4902 50.2375C89.0509 45.7175 85.8974 41.5918 81.4466 41.0224C76.9959 40.453 72.9333 43.6556 72.3726 48.1755C71.8119 52.6955 74.9655 56.8212 79.4162 57.3906C83.867 57.96 87.9296 54.7574 88.4902 50.2375Z" fill="#FF9500"/>
<path d="M73.0243 65.0921C71.4237 64.9504 69.9004 64.3298 68.6472 63.3087C67.394 62.2877 66.4671 60.9122 65.9837 59.3561C65.5003 57.8 65.4823 56.1333 65.9318 54.5668C66.3813 53.0003 67.2781 51.6044 68.5089 50.5556C69.7397 49.5068 71.2491 48.8522 72.8463 48.6747C74.4434 48.4972 76.0565 48.8047 77.4815 49.5583C78.9066 50.312 80.0795 51.4779 80.852 52.9086C81.6245 54.3392 81.9618 55.9705 81.8213 57.5959C81.633 59.7744 80.6006 61.7878 78.9509 63.1935C77.3013 64.5992 75.1696 65.2821 73.0243 65.0921Z" fill="#FF9500"/>
<path d="M64.7684 51.8556C63.1678 51.7138 61.6446 51.0932 60.3914 50.0722C59.1381 49.0511 58.2112 47.6756 57.7278 46.1195C57.2445 44.5635 57.2264 42.8968 57.6759 41.3303C58.1254 39.7638 59.0223 38.3678 60.253 37.319C61.4838 36.2702 62.9933 35.6156 64.5904 35.4381C66.1875 35.2606 67.8007 35.5681 69.2257 36.3218C70.6507 37.0754 71.8237 38.2413 72.5961 39.672C73.3686 41.1027 73.706 42.7339 73.5655 44.3593C73.3771 46.5378 72.3447 48.5512 70.6951 49.9569C69.0455 51.3626 66.9137 52.0455 64.7684 51.8556Z" fill="#FF9500"/>
<path d="M66.2595 61.5321C64.6593 61.3906 63.1362 60.7704 61.8831 59.7499C60.6299 58.7294 59.7028 57.3545 59.219 55.7989C58.7352 54.2434 58.7164 52.5771 59.165 51.0107C59.6136 49.4444 60.5095 48.0482 61.7393 46.9989C62.9692 45.9495 64.4778 45.294 66.0744 45.1153C67.6711 44.9366 69.2841 45.2427 70.7094 45.9949C72.1348 46.747 73.3086 47.9115 74.0823 49.341C74.8561 50.7706 75.1951 52.401 75.0565 54.0262C74.8681 56.2055 73.836 58.2198 72.1867 59.627C70.5374 61.0342 68.4057 61.7194 66.2595 61.5321Z" fill="#FF9500"/>
<path d="M73.1669 48.9999C71.5663 48.8581 70.043 48.2375 68.7898 47.2164C67.5365 46.1954 66.6096 44.8199 66.1263 43.2638C65.6429 41.7077 65.6248 40.041 66.0743 38.4745C66.5238 36.908 67.4207 35.5121 68.6515 34.4633C69.8823 33.4145 71.3917 32.7599 72.9888 32.5824C74.586 32.4049 76.1991 32.7124 77.6241 33.466C79.0491 34.2197 80.2221 35.3856 80.9946 36.8163C81.7671 38.247 82.1044 39.8782 81.9639 41.5036C81.7756 43.6821 80.7431 45.6955 79.0935 47.1012C77.4439 48.5069 75.3121 49.1898 73.1669 48.9999Z" fill="#FF9500"/>
<path d="M72.4727 54.6342C71.3722 54.5365 70.325 54.1097 69.4634 53.4077C68.6018 52.7057 67.9645 51.76 67.632 50.6902C67.2996 49.6205 67.2869 48.4746 67.5956 47.3975C67.9044 46.3204 68.5206 45.3604 69.3665 44.6389C70.2124 43.9174 71.2499 43.4669 72.3479 43.3441C73.4459 43.2214 74.5551 43.432 75.5352 43.9494C76.5154 44.4667 77.3225 45.2676 77.8545 46.2507C78.3865 47.2338 78.6196 48.3551 78.5242 49.4727C78.3938 50.9713 77.6835 52.3563 76.5491 53.3238C75.4147 54.2914 73.9487 54.7627 72.4727 54.6342Z" fill="white"/>
<path d="M100.225 73.7211C104.26 71.7312 105.943 66.7958 103.984 62.6977C102.024 58.5996 97.1643 56.8906 93.1289 58.8806C89.0936 60.8705 87.4107 65.8058 89.3702 69.9039C91.3296 74.002 96.1894 75.711 100.225 73.7211Z" fill="white"/>
<path d="M108.849 76.1677C108.324 77.7101 107.36 79.0598 106.08 80.046C104.8 81.0323 103.261 81.6107 101.656 81.7082C100.052 81.8057 98.456 81.4178 97.0692 80.5936C95.6823 79.7695 94.5672 78.5461 93.8651 77.0782C93.1631 75.6103 92.9055 73.964 93.125 72.3474C93.3444 70.7309 94.0311 69.2167 95.0982 67.9966C96.1652 66.7764 97.5646 65.9051 99.1194 65.4929C100.674 65.0806 102.314 65.146 103.833 65.6806C105.865 66.399 107.534 67.9061 108.474 69.8718C109.414 71.8374 109.549 74.1014 108.849 76.1677Z" fill="white"/>
<path d="M95.8436 81.8116C95.3113 83.3486 94.3428 84.691 93.0602 85.6697C91.7776 86.6484 90.2383 87.2194 88.6366 87.3108C87.0348 87.4021 85.4422 87.0097 84.0598 86.183C82.6773 85.3564 81.5669 84.1324 80.8685 82.6657C80.1702 81.1989 79.9152 79.5549 80.1357 77.9411C80.3562 76.3274 81.0424 74.816 82.1076 73.5978C83.1729 72.3795 84.5695 71.509 86.1214 71.0958C87.6732 70.6827 89.3108 70.7454 90.8276 71.2763C91.8401 71.6307 92.7736 72.1849 93.5744 72.907C94.3752 73.6292 95.0275 74.5051 95.4937 75.4842C95.9598 76.4634 96.2308 77.5265 96.2908 78.6124C96.3509 79.6983 96.1989 80.7856 95.8436 81.8116Z" fill="white"/>
<path d="M105.627 83.2975C105.101 84.8389 104.136 86.1871 102.856 87.1718C101.575 88.1566 100.035 88.7335 98.4318 88.8298C96.8282 88.926 95.2326 88.5372 93.8466 87.7126C92.4606 86.8879 91.3465 85.6644 90.6451 84.1968C89.9438 82.7291 89.6867 81.0832 89.9064 79.4672C90.1261 77.8512 90.8127 76.3376 91.8794 75.1179C92.946 73.8981 94.3449 73.0269 95.8991 72.6145C97.4533 72.2021 99.093 72.2669 100.611 72.8008C101.619 73.1554 102.548 73.7083 103.346 74.4277C104.144 75.1472 104.794 76.0192 105.26 76.9939C105.726 77.9687 105.998 79.0271 106.061 80.1087C106.124 81.1903 105.976 82.2739 105.627 83.2975Z" fill="white"/>
<path d="M96.0615 70.6494C95.5368 72.1918 94.5733 73.5415 93.2931 74.5277C92.0129 75.514 90.4734 76.0924 88.8694 76.1899C87.2654 76.2873 85.6689 75.8995 84.282 75.0753C82.8951 74.2511 81.7801 73.0278 81.0781 71.5599C80.376 70.092 80.1184 68.4457 80.3379 66.8291C80.5573 65.2125 81.244 63.6984 82.3111 62.4783C83.3781 61.2581 84.7775 60.3868 86.3323 59.9746C87.8871 59.5623 89.5273 59.6277 91.0455 60.1623C92.0532 60.5159 92.9825 61.0677 93.7801 61.7863C94.5778 62.5048 95.2281 63.376 95.6939 64.35C96.1598 65.3239 96.4321 66.3816 96.4951 67.4625C96.5582 68.5434 96.4108 69.6264 96.0615 70.6494Z" fill="white"/>
<path d="M93.7431 79.6023C92.6404 79.5045 91.5911 79.0767 90.7279 78.3731C89.8646 77.6695 89.2263 76.7217 88.8936 75.6496C88.5608 74.5775 88.5487 73.4292 88.8586 72.3501C89.1686 71.271 89.7868 70.3095 90.6349 69.5872C91.4831 68.8649 92.5231 68.4143 93.6234 68.2924C94.7238 68.1705 95.835 68.3828 96.8166 68.9024C97.7981 69.4219 98.6059 70.2255 99.1377 71.2113C99.6695 72.1972 99.9014 73.3211 99.8041 74.4408C99.7408 75.1842 99.5336 75.9076 99.1946 76.5696C98.8555 77.2316 98.3912 77.8192 97.8282 78.2987C97.2651 78.7781 96.6145 79.1401 95.9135 79.3638C95.2125 79.5875 94.475 79.6686 93.7431 79.6023Z" fill="#FF9500"/>
</g>
<path d="M100.991 28.8841L107.546 24.7356L100.801 16.5447C100.801 16.5447 94.36 19.9889 95.7755 23.6647L100.991 28.8841Z" fill="#B55B52"/>
<path d="M95.4429 24.6199C93.2674 22.3045 93.6189 18.2235 92.6879 15.5414C92.5359 15.0976 93.0869 14.4609 93.5144 14.4898C94.3314 14.5477 95.1294 16.622 95.2149 17.3842C95.3289 18.3489 100.658 18.6673 99.8984 22.208C98.2929 23.1631 95.4429 24.6199 95.4429 24.6199Z" fill="#B55B52"/>
<path d="M110.822 16.6027L109.749 15.1748C109.163 14.4031 108.318 13.8778 107.375 13.6998C106.432 13.5218 105.457 13.7035 104.638 14.21L100.838 16.5737L107.583 24.7646L110.509 21.8703C111.192 21.1865 111.602 20.2701 111.66 19.2975C111.718 18.325 111.42 17.3651 110.822 16.6027Z" fill="#B55B52"/>
<path d="M139.38 174.208C139.722 172.085 141.945 168.873 142.182 165.052C142.182 165.052 151.454 163.682 150.4 166.075C149.345 168.467 156.945 172.828 164.051 174.246C165.001 174.449 163.871 177.141 161.515 177.141C155.634 177.141 151.065 176.591 147.749 176.475C144.899 176.379 143.854 177.199 141.574 177.15C139.665 177.112 139.038 176.33 139.38 174.208Z" fill="#B55B52"/>
<path d="M197.995 104.59C196.76 102.853 196.836 99.0423 194.328 96.1866C194.328 96.1866 198.404 87.822 200.028 89.8962C202.004 92.4625 211.941 92.2406 218.496 89.0858C219.446 88.642 220.054 91.5171 218.173 92.9449C213.423 96.5146 208.616 98.1547 206.203 100.48C204.132 102.467 204.303 103.567 201.881 105.477C200.323 106.654 199.249 106.336 197.995 104.59Z" fill="#B55B52"/>
<path d="M60.0748 45.1116C50.2328 43.182 30.6248 47.9576 24.4023 59.5831C26.0933 79.3416 51.5628 108.362 83.9388 115.376L114.149 85.1785C114.149 85.1785 112.562 69.2115 82.1148 61.0013C75.1513 53.3893 67.9503 46.6745 60.0748 45.1116Z" fill="#B55B52"/>
<path d="M102.908 70.8807C102.908 70.8807 131.408 58.2229 160.925 51.7107C177.198 48.1121 201.328 92.2311 201.328 92.2311L196.398 98.9845C189.976 88.6325 170.833 81.8308 163.148 72.598C151.225 85.7768 128.245 96.9488 106.651 103.075C99.9726 87.0599 102.908 70.8807 102.908 70.8807Z" fill="#B55B52"/>
<path d="M133.082 58.3097C137.689 61.1172 140.007 82.429 136.882 94.0062C130.868 99.8624 105.845 109.935 87.6811 101.29C82.9881 100.702 82.4941 99.0616 82.4941 99.0616C85.2016 90.6584 94.4261 77.3446 102.748 70.1185C106.9 66.269 126.004 61.5224 133.082 58.3097Z" fill="#FF9500"/>
<path opacity="0.2" d="M108.219 94.6139C115.819 97.5083 121.3 99.351 125.319 100.489C128.975 99.1746 132.439 97.3637 135.617 95.106C130.962 90.7645 117.576 89.7419 108.219 94.6139Z" fill="black"/>
<path d="M98.4734 86.7704C98.4734 86.7704 130.773 95.6656 156.889 111.054C169.41 118.425 148.757 168.631 148.757 168.631L141.641 168.872C141.641 168.872 138.886 139.64 144.311 125.458C124.57 126.934 102.406 123.162 81.7344 114.353C86.2849 97.6048 98.4734 86.7704 98.4734 86.7704Z" fill="#B55B52"/>
<path d="M137.452 99.8334C137.452 99.8334 130.698 117.884 121.92 125.988C111.147 127.918 90.8265 121.058 84.319 117.006C82.9731 117.101 81.6259 116.842 80.4066 116.256C79.1873 115.67 78.1366 114.776 77.3555 113.659C79.2555 105.844 84.5185 92.4336 91.425 83.8182C97.4575 82.3904 125.245 92.6073 137.452 99.8334Z" fill="#FF9500"/>
<path opacity="0.2" d="M51.874 67.2243C51.9898 67.3595 52.1505 67.447 52.3255 67.4701C52.5006 67.4932 52.6779 67.4504 52.824 67.3497C52.9236 67.1859 52.9594 66.9902 52.9242 66.801C52.8891 66.6118 52.7855 66.4427 52.634 66.3271C52.5163 66.1787 52.3464 66.0826 52.1602 66.0591C51.974 66.0357 51.7862 66.0868 51.6365 66.2016C51.5416 66.3711 51.5134 66.5707 51.5574 66.7604C51.6015 66.9501 51.7145 67.1158 51.874 67.2243Z" fill="black"/>
<path opacity="0.2" d="M90.4072 74.4214C90.7397 74.7398 91.1862 74.7977 91.4047 74.5468C91.5083 74.3859 91.5464 74.1903 91.5109 74.0014C91.4755 73.8125 91.3693 73.6449 91.2147 73.5338C91.1013 73.3948 90.9402 73.3046 90.7639 73.2814C90.5877 73.2581 90.4093 73.3035 90.2647 73.4084C90.1583 73.5644 90.1138 73.7555 90.1403 73.9433C90.1667 74.1312 90.262 74.3019 90.4072 74.4214Z" fill="black"/>
<path opacity="0.2" d="M74.4859 56.9976C74.5682 57.1701 74.7136 57.303 74.8912 57.3679C75.0687 57.4329 75.2643 57.4246 75.4359 57.3449C75.5621 57.2016 75.6319 57.0162 75.6319 56.8239C75.6319 56.6317 75.5621 56.4463 75.4359 56.303C75.3537 56.1305 75.2082 55.9975 75.0306 55.9326C74.8531 55.8677 74.6575 55.876 74.4859 55.9557C74.3557 56.0969 74.2832 56.2831 74.2832 56.4766C74.2832 56.6701 74.3557 56.8564 74.4859 56.9976Z" fill="black"/>
<path d="M34.8988 67.0215L34.1958 67.1373L33.6353 67.2145L32.5713 67.3399C31.8778 67.4075 31.1938 67.446 30.5098 67.475C29.1513 67.5329 27.8023 67.475 26.4533 67.4267C23.7261 67.2626 21.0214 66.8264 18.3783 66.1243C15.6448 65.4076 13.0044 64.3648 10.5123 63.0177C7.95386 61.641 5.58935 59.9212 3.48228 57.9045L2.99779 57.451C1.81174 56.3233 1.09755 54.776 1.00278 53.1288C0.833529 50.0294 1.11523 46.9216 1.83879 43.9056C2.51026 41.0783 3.50169 38.3395 4.79329 35.7437C6.01536 33.2738 7.46252 30.9256 9.11579 28.7298C9.93279 27.6396 10.7973 26.6073 11.6808 25.6039C12.1368 25.1119 12.6308 24.6392 13.0773 24.1375C13.5238 23.6358 14.0273 23.2306 14.6258 22.671C15.3038 22.0469 16.1742 21.6811 17.0882 21.6361C18.0023 21.591 18.9034 21.8695 19.6378 22.424C20.3722 22.9785 20.8943 23.7747 21.1151 24.6766C21.3358 25.5785 21.2415 26.5303 20.8483 27.3695L20.6108 27.8712L19.9363 29.299C19.6893 29.8007 19.4613 30.3217 19.2333 30.833C18.7583 31.8653 18.3308 32.9072 17.9318 33.9395C17.1299 35.9636 16.4602 38.0391 15.9273 40.1527C15.4267 42.1151 15.1086 44.121 14.9773 46.1439C14.8505 47.963 14.9494 49.7911 15.2718 51.5852L12.7923 46.8096C14.1385 47.7483 15.5854 48.5283 17.1053 49.1347C17.8821 49.4566 18.6786 49.7273 19.4898 49.9451C20.3128 50.2018 21.1503 50.408 21.9978 50.5625C23.7505 50.8994 25.5257 51.1026 27.3083 51.1704C28.2108 51.1704 29.1228 51.1704 30.0158 51.1704L31.3363 51.1221L32.3718 51.0642L33.2553 51.016C35.2738 50.9219 37.2515 51.6146 38.7838 52.9524C40.3161 54.2902 41.2871 56.172 41.4983 58.2129C41.7094 60.2538 41.1447 62.2995 39.9197 63.9315C38.6948 65.5635 36.902 66.6586 34.9083 66.9926L34.8988 67.0215Z" fill="#B55B52"/>
<path d="M12.5254 25.1602L16.1259 18.2139L24.6759 24.4463C24.6759 24.4463 21.7594 31.1997 18.0259 30.0612L12.5254 25.1602Z" fill="#B55B52"/>
<path d="M23.8689 14.2969L25.3604 15.2617C26.1637 15.7953 26.7446 16.6113 26.9918 17.5532C27.2391 18.4951 27.1351 19.4965 26.6999 20.3653L24.6574 24.427L16.1074 18.1946L18.7769 15.0205C19.3932 14.2906 20.2506 13.8143 21.1882 13.681C22.1258 13.5478 23.0791 13.7668 23.8689 14.2969Z" fill="#B55B52"/>
<path d="M27.7461 35.9464C30.8811 40.9825 35.4791 50.5916 31.8121 55.8689C31.8121 55.8689 35.4981 60.8085 48.3991 56.525C57.0061 53.6306 56.9966 51.3924 55.6571 50.0514C55.1228 49.5954 54.503 49.2543 53.8351 49.0487C53.1673 48.843 52.4653 48.7772 51.7716 48.855C44.9981 49.1734 43.8961 44.8802 43.8676 40.4905L27.7461 35.9464Z" fill="#B55B52"/>
<path opacity="0.2" d="M34.3191 37.7987L43.8666 40.4808C43.8501 41.5726 43.9521 42.6629 44.1706 43.7321C42.2706 44.6197 36.0766 44.3592 34.9746 42.0148C34.4927 40.6649 34.2702 39.2337 34.3191 37.7987Z" fill="black"/>
<path d="M24.4197 31.1998C28.9702 37.5287 31.3168 41.4746 36.7223 42.777C44.8543 44.6583 50.9722 36.4385 48.3787 28.8554C46.0417 22.0248 38.9928 12.8113 30.9938 14.3163C29.2332 14.6412 27.5833 15.4165 26.1999 16.5689C24.8164 17.7214 23.7451 19.213 23.0871 20.9029C22.4291 22.5927 22.2062 24.4251 22.4394 26.2267C22.6725 28.0284 23.3541 29.74 24.4197 31.1998Z" fill="#B55B52"/>
<path d="M27.1664 37.789C29.5034 36.8243 28.6294 28.4115 26.7199 27.0608C27.5274 25.961 29.8454 21.6195 27.4609 19.2654C31.8784 19.2654 38.7564 15.3002 39.2694 12.6568C39.7824 10.0133 37.7494 7.78467 34.3864 7.4856C34.9279 8.37318 36.0394 9.66597 34.0919 9.94575C32.1444 10.2255 24.3734 7.05144 20.7254 10.843C21.1443 10.7822 21.571 10.8108 21.9784 10.9271C22.3857 11.0434 22.7646 11.2448 23.0909 11.5183C23.0909 11.5183 12.5269 20.1434 17.5999 25.2663C13.1824 26.9933 11.5864 37.2681 27.1664 37.789Z" fill="#263238"/>
<path d="M18.4156 25.6714C18.4156 25.6714 15.6416 21.8123 12.1836 26.7519C14.6821 24.4654 18.4156 25.6714 18.4156 25.6714Z" fill="#263238"/>
<path d="M35.422 26.6459C35.764 27.1861 36.315 27.437 36.6665 27.2151C37.018 26.9932 37.018 26.3661 36.6665 25.8355C36.315 25.3048 35.7735 25.0443 35.4315 25.2662C35.0895 25.4881 35.0895 26.1056 35.422 26.6459Z" fill="#263238"/>
<path d="M41.3966 22.7676C41.7386 23.3078 42.2896 23.5587 42.6411 23.3368C42.9926 23.1149 42.9926 22.4878 42.6411 21.9572C42.2896 21.4265 41.7481 21.1661 41.4061 21.3879C41.0641 21.6098 41.0641 22.2273 41.3966 22.7676Z" fill="#263238"/>
<path d="M39.668 24.2628C41.3319 25.4931 43.1538 26.4864 45.083 27.215C44.7125 28.7104 42.86 29.3375 42.86 29.3375L39.668 24.2628Z" fill="#A02724"/>
<path d="M41.0058 32.4443C41.443 32.2845 41.8605 32.074 42.2503 31.8172C42.2712 31.8054 42.2893 31.7892 42.3037 31.7698C42.318 31.7505 42.3282 31.7282 42.3336 31.7046C42.3389 31.681 42.3394 31.6565 42.3349 31.6326C42.3303 31.6088 42.3209 31.5862 42.3073 31.5663C42.2947 31.5449 42.2779 31.5262 42.258 31.5116C42.2381 31.4969 42.2154 31.4866 42.1914 31.4812C42.1673 31.4757 42.1425 31.4754 42.1183 31.4801C42.0941 31.4848 42.0712 31.4944 42.0508 31.5085C41.4033 31.9502 40.6622 32.2302 39.888 32.3258C39.1137 32.4213 38.3281 32.3297 37.5953 32.0584C37.5519 32.0474 37.5062 32.0523 37.466 32.0722C37.4259 32.0921 37.3939 32.1258 37.3758 32.1672C37.3576 32.2087 37.3544 32.2553 37.3668 32.299C37.3791 32.3426 37.4062 32.3804 37.4433 32.4057C38.5894 32.8436 39.8508 32.8573 41.0058 32.4443Z" fill="#263238"/>
<path d="M29.5785 25.7584C29.6412 25.7219 29.6924 25.6681 29.7261 25.6031C29.7597 25.5382 29.7744 25.4649 29.7685 25.3917C29.7232 24.9259 29.7854 24.4557 29.9503 24.0186C30.1152 23.5815 30.3783 23.1895 30.7185 22.8737C30.7657 22.8477 30.8067 22.8117 30.8388 22.768C30.8709 22.7244 30.8933 22.6742 30.9044 22.6209C30.9155 22.5676 30.9151 22.5125 30.9032 22.4594C30.8913 22.4062 30.8682 22.3564 30.8354 22.3132C30.8027 22.2701 30.7611 22.2347 30.7136 22.2094C30.6661 22.1842 30.6137 22.1697 30.5601 22.1671C30.5065 22.1644 30.453 22.1736 30.4033 22.194C30.3535 22.2144 30.3087 22.2455 30.272 22.2852C29.8233 22.6685 29.473 23.1567 29.2513 23.708C29.0295 24.2592 28.9429 24.8569 28.999 25.4496C29.0014 25.4987 29.0135 25.5467 29.0345 25.5909C29.0555 25.6351 29.0851 25.6746 29.1214 25.707C29.1577 25.7394 29.2001 25.764 29.246 25.7795C29.2918 25.7949 29.3403 25.8009 29.3885 25.7969C29.454 25.8001 29.5193 25.7869 29.5785 25.7584Z" fill="#263238"/>
<path d="M41.8639 16.1107C41.9199 16.0686 41.963 16.0114 41.9885 15.9456C42.0139 15.8797 42.0206 15.808 42.0077 15.7385C41.9948 15.669 41.9629 15.6046 41.9156 15.5527C41.8683 15.5008 41.8076 15.4634 41.7404 15.445C41.178 15.2799 40.5846 15.2551 40.0107 15.3726C39.4368 15.4902 38.8993 15.7467 38.4439 16.1203C38.4085 16.1545 38.3804 16.1957 38.3612 16.2413C38.3419 16.2869 38.332 16.336 38.332 16.3856C38.332 16.4352 38.3419 16.4843 38.3612 16.5299C38.3804 16.5755 38.4085 16.6167 38.4439 16.6509C38.5129 16.7181 38.6048 16.7557 38.7004 16.7557C38.796 16.7557 38.8879 16.7181 38.9569 16.6509C39.3235 16.3622 39.7524 16.1661 40.2083 16.0789C40.6642 15.9917 41.134 16.0158 41.5789 16.1492C41.6752 16.1748 41.7775 16.1609 41.8639 16.1107Z" fill="#263238"/>
<path d="M38.4982 24.7938C38.9115 25.4921 39.1116 26.2992 39.0732 27.113C39.0348 27.9268 38.7596 28.7108 38.2825 29.3658C37.8054 30.0208 37.1477 30.5174 36.3927 30.7929C35.6377 31.0683 34.8191 31.1102 34.0407 30.9132C33.2622 30.7162 32.5587 30.2893 32.0192 29.6863C31.4796 29.0833 31.1283 28.3313 31.0095 27.5256C30.8908 26.7198 31.01 25.8964 31.352 25.1594C31.6941 24.4224 32.2437 23.805 32.9312 23.3852C33.854 22.8248 34.9578 22.6583 36.0011 22.9223C37.0444 23.1863 37.9422 23.8592 38.4982 24.7938Z" fill="#263238"/>
<path d="M24.9701 32.8495C24.9004 32.8376 24.8378 32.7989 24.7953 32.7414C24.7529 32.6839 24.7338 32.6121 24.7421 32.5407C24.8371 31.711 28.7416 30.2928 31.0881 29.5113L37.3201 24.5235C37.5 23.963 37.8554 23.4776 38.3323 23.1414C38.8091 22.8052 39.3812 22.6367 39.9611 22.6614C40.0291 22.6755 40.0894 22.7151 40.1299 22.7724C40.1705 22.8296 40.1882 22.9002 40.1796 22.9702C40.1702 23.0402 40.134 23.1038 40.0789 23.147C40.0239 23.1903 39.9543 23.21 39.8851 23.2017C38.4601 22.9895 37.7951 24.7647 37.7856 24.784C37.7685 24.83 37.7388 24.8701 37.7001 24.8997L31.3826 29.9551C31.3576 29.9768 31.3285 29.9932 31.2971 30.0034C28.5516 30.9199 25.4546 32.1741 25.2646 32.6179C25.2612 32.6531 25.2507 32.6873 25.2338 32.7182C25.2169 32.7492 25.194 32.7763 25.1664 32.798C25.1389 32.8197 25.1072 32.8354 25.0735 32.8442C25.0397 32.8531 25.0046 32.8549 24.9701 32.8495Z" fill="#263238"/>
<path d="M24.354 38.088C25.9928 39.0992 27.9474 39.4438 29.826 39.0528C32.258 38.5125 32.163 36.062 30.3865 34.3833C28.781 32.8686 25.589 31.325 23.67 32.7432C21.751 34.1614 22.3495 36.8242 24.354 38.088Z" fill="#B55B52"/>
<path d="M32.9141 23.3851C32.4137 23.6883 31.9855 24.1001 31.6602 24.5911L33.1042 30.5534C33.8516 30.9591 34.7061 31.1144 35.5457 30.9972L33.6457 23.0475C33.3903 23.1323 33.145 23.2455 32.9141 23.3851Z" fill="white"/>
<path d="M34.3086 22.8641L36.2086 30.833C36.5088 30.7425 36.7962 30.6128 37.0636 30.4471C37.1626 30.3941 37.2551 30.3294 37.3391 30.2542L35.5341 22.8351C35.1268 22.7758 34.7127 22.7856 34.3086 22.8641Z" fill="white"/>
<path d="M45.9281 18.8989C46.2665 19.566 46.406 20.3188 46.3296 21.0652C46.2533 21.8116 45.9642 22.5191 45.498 23.1013C45.0317 23.6834 44.4085 24.1149 43.7045 24.3429C43.0005 24.5709 42.2463 24.5855 41.5343 24.3849C40.8223 24.1843 40.1833 23.7773 39.6955 23.2136C39.2077 22.6499 38.8924 21.954 38.7881 21.2111C38.6837 20.4682 38.7949 19.7106 39.1081 19.0309C39.4212 18.3512 39.9227 17.7789 40.5511 17.3842C41.002 17.1247 41.4988 16.958 42.0132 16.8937C42.5276 16.8293 43.0494 16.8686 43.5488 17.0093C44.0482 17.15 44.5154 17.3893 44.9237 17.7135C45.332 18.0378 45.6733 18.4406 45.9281 18.8989Z" fill="#263238"/>
<path d="M40.5415 17.384C40.0688 17.6684 39.6686 18.0617 39.373 18.5321L40.9025 24.4462C41.6087 24.8729 42.432 25.0557 43.249 24.9671L41.2066 17.0946C40.9742 17.1635 40.7509 17.2607 40.5415 17.384Z" fill="white"/>
<path d="M41.8711 16.8922L43.9136 24.8033C44.201 24.7193 44.4759 24.596 44.7306 24.4367C44.821 24.3867 44.9069 24.3286 44.9871 24.263L43.0871 16.9018C42.6851 16.8299 42.2741 16.8266 41.8711 16.8922Z" fill="white"/>
<path d="M26.1956 49.6267C32.9501 48.5172 45.4331 54.1322 57.7736 63.1335C70.1141 72.1348 89.7221 92.3371 89.7221 92.3371C89.7221 92.3371 78.4646 113.253 81.8466 120.817C52.0831 116.321 24.6186 72.0673 24.6186 72.0673C24.6186 72.0673 12.9431 71.1797 7.20508 65.8155C9.53258 55.9749 16.6291 47.3981 16.6291 47.3981L26.1956 49.6267Z" fill="#263238"/>
<mask id="mask1_2443_91" style="mask-type:luminance" maskUnits="userSpaceOnUse" x="7" y="47" width="83" height="74">
<path d="M26.1956 49.6267C32.9501 48.5172 45.4331 54.1322 57.7736 63.1335C70.1141 72.1348 89.7221 92.3371 89.7221 92.3371C89.7221 92.3371 78.4646 113.253 81.8466 120.817C52.0831 116.321 24.6186 72.0673 24.6186 72.0673C24.6186 72.0673 12.9431 71.1797 7.20508 65.8155C9.53258 55.9749 16.6291 47.3981 16.6291 47.3981L26.1956 49.6267Z" fill="white"/>
</mask>
<g mask="url(#mask1_2443_91)">
<path d="M44.4169 46.1921C44.4428 47.6845 44.0327 49.1514 43.2385 50.4074C42.4442 51.6634 41.3013 52.6523 39.9541 53.2492C38.6069 53.8461 37.1157 54.0243 35.6689 53.7613C34.222 53.4983 32.8843 52.8058 31.8246 51.7714C30.765 50.7369 30.0308 49.4069 29.7149 47.949C29.3989 46.4912 29.5154 44.971 30.0495 43.5803C30.5836 42.1897 31.5114 40.9908 32.7159 40.1352C33.9203 39.2796 35.3474 38.8056 36.8169 38.773C37.7958 38.7525 38.7691 38.9282 39.6811 39.2902C40.593 39.6521 41.4258 40.193 42.1317 40.8821C42.8376 41.5712 43.4027 42.3949 43.7948 43.306C44.187 44.2172 44.3983 45.1979 44.4169 46.1921Z" fill="#FF9500"/>
<path d="M51.7995 53.1965C52.6094 49.1063 50.001 45.1238 45.9735 44.3014C41.9459 43.4789 38.0244 46.1278 37.2145 50.218C36.4046 54.3082 39.013 58.2907 43.0406 59.1132C47.0681 59.9356 50.9896 57.2867 51.7995 53.1965Z" fill="#FF9500"/>
<path d="M40.8633 60.8342C40.9729 56.6637 37.7327 53.1925 33.626 53.0811C29.5193 52.9697 26.1013 56.2603 25.9916 60.4308C25.8819 64.6014 29.1221 68.0726 33.2288 68.184C37.3355 68.2954 40.7536 65.0048 40.8633 60.8342Z" fill="#FF9500"/>
<path d="M49.1853 60.15C50.1743 56.1006 47.7436 52.0038 43.7562 50.9994C39.7689 49.9951 35.7348 52.4635 34.7458 56.5129C33.7568 60.5622 36.1875 64.659 40.1748 65.6634C44.1622 66.6678 48.1963 64.1993 49.1853 60.15Z" fill="#FF9500"/>
<path d="M37.2849 54.9564C38.2739 50.907 35.8432 46.8102 31.8559 45.8058C27.8685 44.8015 23.8344 47.2699 22.8454 51.3193C21.8564 55.3686 24.2871 59.4654 28.2744 60.4698C32.2618 61.4742 36.2959 59.0057 37.2849 54.9564Z" fill="#FF9500"/>
<path d="M42.6229 53.1094C42.6416 54.1376 42.3595 55.1484 41.8125 56.0138C41.2655 56.8793 40.4781 57.5606 39.5499 57.9717C38.6216 58.3827 37.5942 58.505 36.5975 58.323C35.6008 58.1411 34.6796 57.6631 33.9504 56.9495C33.2211 56.236 32.7166 55.3188 32.5006 54.3141C32.2846 53.3093 32.3669 52.2621 32.7369 51.3048C33.1069 50.3475 33.7481 49.5231 34.5795 48.9359C35.4108 48.3487 36.395 48.025 37.4075 48.0057C38.7648 47.9825 40.0759 48.5066 41.0535 49.4632C42.0311 50.4198 42.5955 51.731 42.6229 53.1094Z" fill="white"/>
<path d="M68.6727 70.9648C71.6315 70.1983 73.4183 67.1411 72.6635 64.1362C71.9088 61.1314 68.8983 59.3169 65.9395 60.0834C62.9806 60.8498 61.1939 63.9071 61.9486 66.9119C62.7034 69.9168 65.7138 71.7313 68.6727 70.9648Z" fill="#FF9500"/>
<path d="M74.2742 75.0275C77.2331 74.261 79.0198 71.2037 78.2651 68.1989C77.5103 65.194 74.4999 63.3795 71.5411 64.146C68.5822 64.9125 66.7954 67.9697 67.5502 70.9746C68.3049 73.9794 71.3154 75.7939 74.2742 75.0275Z" fill="#FF9500"/>
<path d="M66.0418 81.646C69.0006 80.8795 70.7874 77.8223 70.0327 74.8174C69.2779 71.8126 66.2675 69.998 63.3086 70.7645C60.3498 71.531 58.563 74.5883 59.3178 77.5931C60.0725 80.5979 63.083 82.4125 66.0418 81.646Z" fill="#FF9500"/>
<path d="M76.4986 74.4019C76.5172 75.5122 76.2112 76.6032 75.6194 77.5369C75.0275 78.4706 74.1763 79.2051 73.1733 79.6476C72.1704 80.09 71.0608 80.2205 69.9849 80.0226C68.9089 79.8246 67.9149 79.3071 67.1286 78.5355C66.3422 77.7639 65.7988 76.7729 65.567 75.6876C65.3353 74.6024 65.4256 73.4717 65.8265 72.4386C66.2275 71.4055 66.9211 70.5163 67.8196 69.8835C68.7182 69.2507 69.7813 68.9027 70.8746 68.8834C71.6007 68.8706 72.3222 69.0033 72.9978 69.2737C73.6734 69.5441 74.29 69.9471 74.8123 70.4596C75.3345 70.972 75.7522 71.5839 76.0416 72.2604C76.3309 72.9368 76.4862 73.6645 76.4986 74.4019Z" fill="#FF9500"/>
<path d="M67.6822 70.543C67.7008 71.6533 67.3948 72.7443 66.803 73.678C66.2111 74.6117 65.3598 75.3462 64.3569 75.7887C63.354 76.2311 62.2444 76.3616 61.1685 76.1637C60.0925 75.9658 59.0985 75.4483 58.3122 74.6766C57.5258 73.905 56.9824 72.914 56.7506 71.8287C56.5189 70.7435 56.6092 69.6128 57.0101 68.5797C57.4111 67.5466 58.1047 66.6574 59.0032 66.0246C59.9018 65.3918 60.9649 65.0438 62.0582 65.0245C62.7843 65.0117 63.5058 65.1444 64.1814 65.4148C64.857 65.6852 65.4736 66.0882 65.9959 66.6007C66.5181 67.1131 66.9358 67.725 67.2252 68.4015C67.5145 69.0779 67.6698 69.8056 67.6822 70.543Z" fill="#FF9500"/>
<path d="M71.492 70.6201C71.505 71.3828 71.2951 72.1322 70.8889 72.7738C70.4827 73.4154 69.8984 73.9204 69.2098 74.225C68.5211 74.5295 67.7591 74.62 67.0198 74.4849C66.2806 74.3499 65.5973 73.9954 65.0564 73.4662C64.5154 72.9371 64.141 72.2569 63.9804 71.5118C63.8199 70.7666 63.8803 69.9899 64.1542 69.2796C64.4281 68.5693 64.9031 67.9574 65.5193 67.5212C66.1354 67.0849 66.8651 66.8439 67.616 66.8285C68.1158 66.8183 68.6127 66.9083 69.0783 67.0935C69.5438 67.2786 69.9687 67.5552 70.3288 67.9074C70.6889 68.2597 70.977 68.6806 71.1766 69.146C71.3762 69.6115 71.4834 70.1125 71.492 70.6201Z" fill="white"/>
<path d="M39.1357 81.7244C40.5687 82.063 41.8707 82.8255 42.8769 83.9156C43.8832 85.0056 44.5486 86.3743 44.7888 87.8484C45.0291 89.3225 44.8336 90.8358 44.2269 92.1971C43.6202 93.5583 42.6297 94.7062 41.3805 95.4957C40.1314 96.2852 38.6798 96.6807 37.2093 96.6323C35.7387 96.5839 34.3154 96.0938 33.1192 95.2238C31.923 94.3538 31.0077 93.1432 30.4891 91.7449C29.9705 90.3466 29.8719 88.8236 30.2057 87.3684C30.6532 85.4175 31.8453 83.727 33.5199 82.6686C35.1945 81.6102 37.2145 81.2706 39.1357 81.7244Z" fill="white"/>
<path d="M45.1474 76.8813C46.5804 77.2199 47.8824 77.9824 48.8887 79.0724C49.8949 80.1625 50.5603 81.5311 50.8006 83.0052C51.0409 84.4793 50.8453 85.9927 50.2386 87.3539C49.6319 88.7151 48.6414 89.8631 47.3922 90.6525C46.1431 91.442 44.6915 91.8376 43.221 91.7892C41.7505 91.7408 40.3271 91.2506 39.1309 90.3806C37.9347 89.5107 37.0195 88.3 36.5009 86.9017C35.9822 85.5035 35.8836 83.9804 36.2174 82.5252C36.6649 80.5743 37.857 78.8838 39.5316 77.8254C41.2062 76.767 43.2262 76.4274 45.1474 76.8813Z" fill="white"/>
<path d="M51.4482 88.3718C52.8812 88.7103 54.1832 89.4729 55.1894 90.5629C56.1957 91.653 56.861 93.0216 57.1013 94.4957C57.3416 95.9698 57.1461 97.4832 56.5394 98.8444C55.9327 100.206 54.9422 101.354 53.693 102.143C52.4439 102.933 50.9923 103.328 49.5218 103.28C48.0512 103.231 46.6279 102.741 45.4317 101.871C44.2355 101.001 43.3203 99.7905 42.8016 98.3922C42.283 96.9939 42.1844 95.4709 42.5182 94.0157C42.9656 92.0648 44.1578 90.3743 45.8324 89.3159C47.507 88.2575 49.527 87.9179 51.4482 88.3718Z" fill="white"/>
<path d="M51.8465 79.1775C53.2793 79.5156 54.5813 80.2775 55.5878 81.3669C56.5942 82.4563 57.2601 83.8243 57.5011 85.298C57.7421 86.7717 57.5475 88.2849 56.9418 89.6462C56.3361 91.0075 55.3465 92.1559 54.0983 92.9462C52.85 93.7365 51.399 94.1332 49.9287 94.0861C48.4585 94.039 47.035 93.5503 45.8382 92.6818C44.6414 91.8132 43.725 90.6038 43.205 89.2064C42.6849 87.809 42.5845 86.2864 42.9165 84.8311C43.137 83.8642 43.543 82.951 44.1112 82.1435C44.6794 81.3361 45.3987 80.6502 46.228 80.1252C47.0573 79.6002 47.9803 79.2463 48.9444 79.0837C49.9084 78.921 50.8946 78.9529 51.8465 79.1775Z" fill="white"/>
<path d="M43.6591 103.023C47.1468 100.818 48.2143 96.1599 46.0434 92.6179C43.8724 89.076 39.2852 87.9919 35.7975 90.1966C32.3098 92.4012 31.2423 97.0598 33.4132 100.602C35.5841 104.144 40.1714 105.228 43.6591 103.023Z" fill="white"/>
<path d="M49.6718 90.5715C49.6904 91.6002 49.4082 92.6113 48.8608 93.477C48.3134 94.3428 47.5254 95.0241 46.5966 95.4349C45.6678 95.8457 44.6399 95.9674 43.6429 95.7847C42.6459 95.602 41.7247 95.1231 40.9958 94.4086C40.2669 93.694 39.7632 92.776 39.5482 91.7706C39.3333 90.7652 39.4168 89.7176 39.7883 88.7605C40.1598 87.8033 40.8025 86.9795 41.6351 86.3934C42.4677 85.8073 43.4528 85.4852 44.4658 85.4679C45.8215 85.4472 47.1302 85.9724 48.1057 86.9288C49.0813 87.8851 49.6443 89.1948 49.6718 90.5715Z" fill="#FF9500"/>
<path d="M74.0672 98.1546C75.0261 98.3808 75.8975 98.8908 76.5712 99.6199C77.2448 100.349 77.6904 101.265 77.8517 102.251C78.0129 103.237 77.8826 104.25 77.4771 105.161C77.0717 106.072 76.4093 106.841 75.5738 107.369C74.7383 107.898 73.7671 108.164 72.7831 108.132C71.7991 108.1 70.8464 107.773 70.0456 107.191C69.2447 106.61 68.6317 105.8 68.2839 104.865C67.9361 103.93 67.8692 102.91 68.0917 101.937C68.2394 101.29 68.5112 100.679 68.8915 100.139C69.2718 99.5985 69.7531 99.1397 70.308 98.7885C70.8629 98.4373 71.4805 98.2006 72.1255 98.0918C72.7705 97.9831 73.4303 98.0044 74.0672 98.1546Z" fill="white"/>
<path d="M78.0945 94.9129C79.0535 95.1391 79.9249 95.649 80.5985 96.3781C81.2721 97.1072 81.7177 98.0228 81.879 99.0091C82.0403 99.9954 81.9099 101.008 81.5045 101.919C81.099 102.83 80.4367 103.599 79.6011 104.128C78.7656 104.656 77.7945 104.922 76.8105 104.89C75.8265 104.858 74.8738 104.531 74.0729 103.95C73.2721 103.368 72.659 102.558 72.3112 101.623C71.9634 100.688 71.8965 99.6688 72.119 98.6948C72.4219 97.3912 73.2201 96.262 74.3395 95.5536C75.4588 94.8451 76.8086 94.6148 78.0945 94.9129Z" fill="white"/>
<path d="M83.8096 111.834C86.1436 110.359 86.858 107.241 85.4052 104.871C83.9524 102.5 80.8825 101.775 78.5484 103.25C76.2144 104.726 75.5 107.843 76.9528 110.214C78.4056 112.584 81.4755 113.309 83.8096 111.834Z" fill="white"/>
<path d="M82.581 96.4566C83.5401 96.6833 84.4115 97.1938 85.0849 97.9235C85.7583 98.6533 86.2035 99.5695 86.364 100.556C86.5246 101.543 86.3933 102.556 85.9869 103.467C85.5804 104.378 84.917 105.146 84.0807 105.674C83.2443 106.202 82.2725 106.466 81.2882 106.433C80.304 106.4 79.3515 106.071 78.5512 105.488C77.751 104.905 77.139 104.095 76.7926 103.158C76.4463 102.222 76.3812 101.203 76.6055 100.229C76.906 98.9243 77.7041 97.7942 78.8245 97.0869C79.945 96.3796 81.2961 96.1529 82.581 96.4566Z" fill="white"/>
<path d="M75.6055 103.181C76.5635 103.409 77.4336 103.92 78.1058 104.65C78.778 105.38 79.2221 106.296 79.382 107.282C79.5419 108.268 79.4105 109.28 79.0044 110.19C78.5982 111.1 77.9356 111.868 77.1001 112.396C76.2646 112.924 75.2938 113.188 74.3103 113.156C73.3268 113.124 72.3747 112.797 71.5743 112.215C70.774 111.634 70.1612 110.825 69.8134 109.89C69.4657 108.955 69.3985 107.937 69.6205 106.963C69.921 105.656 70.7202 104.523 71.8424 103.814C72.9646 103.105 74.318 102.877 75.6055 103.181Z" fill="white"/>
<path d="M81.1242 104.078C81.1353 104.767 80.9452 105.444 80.5777 106.022C80.2103 106.601 79.682 107.057 79.0598 107.331C78.4375 107.605 77.7493 107.685 77.0819 107.562C76.4146 107.439 75.7982 107.118 75.3107 106.639C74.8232 106.16 74.4865 105.545 74.3431 104.872C74.1998 104.199 74.2562 103.497 74.5052 102.857C74.7543 102.216 75.1848 101.665 75.7424 101.273C76.3 100.88 76.9595 100.665 77.6377 100.653C78.5465 100.64 79.4235 100.993 80.0768 101.635C80.7301 102.277 81.1067 103.155 81.1242 104.078Z" fill="#FF9500"/>
</g>
<path d="M108.6 10.978C108.954 13.4088 108.343 15.8828 106.901 17.8558C105.459 19.8289 103.304 21.1393 100.91 21.4988C98.5166 21.8583 96.0805 21.2374 94.1376 19.7728C92.1948 18.3082 90.9044 16.1198 90.5504 13.689C89.8094 8.62392 93.6665 6.72332 98.654 5.9708C103.641 5.21828 107.85 5.92256 108.6 10.978Z" fill="#263238"/>
<path d="M106.358 8.47926C106.595 10.0808 103.565 11.856 99.5936 12.4541C95.6226 13.0523 92.2121 12.2322 91.9936 10.6403C91.7751 9.04846 94.7961 7.26364 98.7671 6.66549C102.738 6.06733 106.13 6.88739 106.358 8.47926Z" fill="white"/>
<path d="M96.2513 11.7402L90.9408 2.46876L87.6823 7.44698L86.7988 6.85847L90.9978 0.433105L97.1633 11.1999L96.2513 11.7402Z" fill="#FF9500"/>
</svg>
