<svg width="32" height="28" viewBox="0 0 32 28" fill="none" xmlns="http://www.w3.org/2000/svg">
<mask id="mask0_2443_2458" style="mask-type:luminance" maskUnits="userSpaceOnUse" x="0" y="0" width="32" height="28">
<path d="M31.7287 0.831299H0V27.1686H31.7287V0.831299Z" fill="white"/>
</mask>
<g mask="url(#mask0_2443_2458)">
<path d="M9.46613 4.30689C7.58637 4.4928 5.87187 5.46366 4.74091 6.99226C4.2813 7.61712 3.89398 8.41757 3.68742 9.16121C3.14001 11.1701 3.53249 13.2667 4.7564 14.9193C5.38643 15.7662 6.16622 16.4272 7.10094 16.9023C9.24924 17.992 11.8313 17.8319 13.8299 16.484C14.1965 16.2413 14.5012 15.9883 14.8369 15.6474C15.9214 14.5578 16.5617 13.2099 16.7373 11.6658C16.7889 11.2372 16.7734 10.3696 16.7063 9.9565C16.6288 9.44008 16.4688 8.86686 16.2725 8.38659C16.0763 7.90632 15.72 7.30211 15.3998 6.87348C14.2946 5.43268 12.6214 4.49796 10.8191 4.30689C10.4835 4.27074 9.78115 4.27074 9.46097 4.29656L9.46613 4.30689ZM21.3644 6.9148C21.3644 6.9148 21.4109 7.07489 21.4677 7.25047C21.5245 7.43121 21.6174 7.74106 21.6691 7.9373C21.7207 8.13871 21.762 8.30396 21.7672 8.30912C21.7672 8.30912 21.9325 8.32462 22.1287 8.34011C22.9601 8.39692 23.6005 8.52086 24.3441 8.76874C26.5751 9.51238 28.4032 11.1029 29.4412 13.2151C29.8801 14.1085 30.1435 15.0019 30.2829 16.0606C30.3346 16.484 30.3346 17.5943 30.2829 18.0333C30.1074 19.4689 29.6374 20.7341 28.8525 21.9116C28.3464 22.6604 27.6182 23.4402 26.9056 23.9824C24.9535 25.4749 22.5005 26.0739 20.094 25.6453C18.7823 25.4129 17.4964 24.8552 16.4223 24.0495C15.7561 23.5486 15.1312 22.9289 14.651 22.2886L14.4857 22.0717L14.4031 22.1026C13.8867 22.2937 13.5148 22.4125 13.1998 22.4951C13.1482 22.5055 13.1069 22.5261 13.1069 22.5364C13.1069 22.5932 13.6181 23.2852 13.9383 23.6571C14.1707 23.9359 14.7697 24.5298 15.0434 24.757C16.4843 25.9758 18.1729 26.7556 20.0166 27.0499C20.6621 27.1532 21.7104 27.1945 22.3714 27.148C24.0601 27.0189 25.6455 26.487 27.076 25.573C28.0623 24.9429 29.0332 24.0341 29.7407 23.0787C30.8045 21.643 31.4552 19.9957 31.6721 18.1779C31.7186 17.7957 31.7341 16.6699 31.7031 16.2671C31.512 13.9226 30.5825 11.8156 28.9971 10.1166C27.3084 8.31429 25.0981 7.21948 22.6193 6.95611C22.2888 6.91996 21.3541 6.88381 21.3541 6.90963L21.3644 6.9148Z" fill="#FFA101"/>
</g>
</svg>
