<svg width="24" height="24" viewBox="0 0 24 24" fill="none" xmlns="http://www.w3.org/2000/svg">
<path d="M21.8978 21.1919L21.1908 21.8999L18.6761 19.3853L19.5423 18.8354L21.8978 21.1919ZM19.5033 18.7974H16.6742L17.0716 19.1948C15.5223 20.0512 13.7775 20.5033 12.0003 20.5005C6.88498 20.5005 2.62396 16.8409 1.69077 11.9976C2.11499 9.8109 3.22477 7.81538 4.86069 6.30127L5.24252 5.94775L4.87436 5.58057L2.09897 2.80713L2.806 2.1001L19.5033 18.7974ZM5.59897 6.97998C4.16427 8.2844 3.16471 9.99818 2.73569 11.8892L2.7103 12.0005L2.73569 12.1118C3.06534 13.554 3.72717 14.8991 4.6683 16.0405C5.60956 17.182 6.80446 18.0886 8.15756 18.687C9.51055 19.2853 10.9846 19.5595 12.4622 19.4878C13.9399 19.4161 15.3806 19.0004 16.6693 18.2739L17.2435 17.9497L16.7777 17.4849L14.4671 15.1743L14.1292 15.3872C13.362 15.8704 12.4532 16.079 11.5521 15.978C10.6508 15.877 9.81059 15.4719 9.16928 14.8306C8.52804 14.1893 8.12383 13.349 8.0228 12.4478C7.92186 11.5466 8.12941 10.6379 8.61264 9.87061L8.82553 9.53271L8.5433 9.25049L6.28842 6.99658L5.95151 6.65967L5.59897 6.97998ZM12.0003 3.50049C17.1148 3.50065 21.3749 7.15829 22.3089 12.0005C22.0451 13.3667 21.5113 14.6643 20.7406 15.8188L20.0189 15.0972C20.6021 14.1813 21.0251 13.171 21.265 12.1099L21.2894 11.9995L21.264 11.8892C20.9772 10.6328 20.4381 9.4472 19.679 8.40576C18.92 7.36445 17.9571 6.48823 16.849 5.83057C15.7408 5.17289 14.5105 4.74699 13.2328 4.57959C12.0531 4.42504 10.8563 4.49588 9.70346 4.78271L8.89096 3.97021C9.87356 3.66623 10.918 3.50049 12.0003 3.50049ZM9.20639 10.9028C8.99287 11.4464 8.94268 12.0411 9.06186 12.6128C9.18107 13.1843 9.46449 13.7087 9.87729 14.1216C10.2902 14.5345 10.8154 14.8178 11.3871 14.937C11.9586 15.0561 12.5526 15.006 13.096 14.7925L12.9134 14.3276H12.9144L13.2679 13.9741L10.0257 10.7329L9.48569 10.1929L9.20639 10.9028ZM13.0658 8.14404C13.1841 8.17673 13.3011 8.21469 13.4164 8.2583C13.9465 8.45897 14.4286 8.77055 14.8294 9.17139C15.2301 9.57214 15.5409 10.0535 15.7415 10.5835C15.785 10.6983 15.8212 10.8153 15.8539 10.9331L13.0658 8.14404Z" fill="#0A0D12" stroke="#9EA2AE"/>
</svg>
