<svg width="32" height="33" viewBox="0 0 32 33" fill="none" xmlns="http://www.w3.org/2000/svg">
<g clip-path="url(#clip0_2421_21729)">
<path d="M12.6897 1.1001C5.98624 1.1001 0.551758 3.002 0.551758 5.3483V28.1826C0.551758 29.776 5.98624 31.9001 12.6897 31.9001C19.3931 31.9001 24.8276 29.776 24.8276 28.1826V5.3483C24.8276 3.002 19.3931 1.1001 12.6897 1.1001Z" fill="#652F9B"/>
<path d="M12.6897 9.35005C19.3933 9.35005 24.8276 7.3801 24.8276 4.95005C24.8276 2.52 19.3933 0.550049 12.6897 0.550049C5.98609 0.550049 0.551758 2.52 0.551758 4.95005C0.551758 7.3801 5.98609 9.35005 12.6897 9.35005Z" fill="#FDB022"/>
<path d="M12.6897 24.7499C5.98624 24.7499 0.551758 22.5499 0.551758 20.8999V28.5999C0.551758 30.2499 5.98624 32.4499 12.6897 32.4499C19.3931 32.4499 24.8276 30.2499 24.8276 28.5999V20.8999C24.8276 22.5499 19.3931 24.7499 12.6897 24.7499Z" fill="#FEDF89"/>
<path d="M12.6897 17.05C5.98624 17.05 0.551758 14.85 0.551758 13.2V20.9C0.551758 22.55 5.98624 24.75 12.6897 24.75C19.3931 24.75 24.8276 22.55 24.8276 20.9V13.2C24.8276 14.85 19.3931 17.05 12.6897 17.05Z" fill="#FEDF89"/>
<path d="M12.6897 9.34995C5.98624 9.34995 0.551758 7.37985 0.551758 4.94995V13.2C0.551758 14.85 5.98624 17.05 12.6897 17.05C19.3931 17.05 24.8276 14.85 24.8276 13.2V4.94995C24.8276 7.37985 19.3931 9.34995 12.6897 9.34995Z" fill="#FEDF89"/>
<path d="M12.6897 9.9C4.44745 9.9 0 7.34965 0 4.95C0 2.55035 4.44745 0 12.6897 0C20.9319 0 25.3793 2.55035 25.3793 4.95C25.3793 7.34965 20.9319 9.9 12.6897 9.9ZM12.6897 1.1C5.86207 1.1 1.10345 3.12895 1.10345 4.95C1.10345 6.77105 5.86207 8.8 12.6897 8.8C19.5172 8.8 24.2759 6.77105 24.2759 4.95C24.2759 3.12895 19.5172 1.1 12.6897 1.1Z" fill="#0A0D12"/>
<path d="M12.6897 17.5999C6.16662 17.5999 0 15.4615 0 13.1999V4.9499C0 4.80403 0.0581279 4.66414 0.161596 4.56099C0.265065 4.45785 0.405398 4.3999 0.551724 4.3999C0.69805 4.3999 0.838384 4.45785 0.941852 4.56099C1.04532 4.66414 1.10345 4.80403 1.10345 4.9499C1.10345 6.77095 5.86207 8.7999 12.6897 8.7999C19.5172 8.7999 24.2759 6.77095 24.2759 4.9499C24.2759 4.80403 24.334 4.66414 24.4375 4.56099C24.5409 4.45785 24.6813 4.3999 24.8276 4.3999C24.9739 4.3999 25.1142 4.45785 25.2177 4.56099C25.3212 4.66414 25.3793 4.80403 25.3793 4.9499V13.1999C25.3793 15.4615 19.2127 17.5999 12.6897 17.5999ZM1.10345 7.00745V13.1999C1.10345 14.1514 5.72083 16.4999 12.6897 16.4999C19.6585 16.4999 24.2759 14.1514 24.2759 13.1999V7.00745C22.485 8.6129 18.5451 9.8999 12.6897 9.8999C6.83421 9.8999 2.89434 8.6129 1.10345 7.00745Z" fill="#0A0D12"/>
<path d="M12.6897 25.2999C6.16662 25.2999 0 23.1615 0 20.8999V13.1999C0 13.054 0.0581279 12.9141 0.161596 12.811C0.265065 12.7078 0.405398 12.6499 0.551724 12.6499C0.69805 12.6499 0.838384 12.7078 0.941852 12.811C1.04532 12.9141 1.10345 13.054 1.10345 13.1999C1.10345 14.1514 5.72083 16.4999 12.6897 16.4999C19.6585 16.4999 24.2759 14.1514 24.2759 13.1999C24.2759 13.054 24.334 12.9141 24.4375 12.811C24.5409 12.7078 24.6813 12.6499 24.8276 12.6499C24.9739 12.6499 25.1142 12.7078 25.2177 12.811C25.3212 12.9141 25.3793 13.054 25.3793 13.1999V19.2499C25.3793 19.3958 25.3212 19.5357 25.2177 19.6388C25.1142 19.742 24.9739 19.7999 24.8276 19.7999C22.0634 19.7999 19.6497 21.6655 18.9583 24.3363C18.9324 24.4364 18.8786 24.5271 18.8033 24.5981C18.728 24.6691 18.6341 24.7175 18.5324 24.7378C16.608 25.1158 14.651 25.304 12.6897 25.2999ZM1.10345 14.8703V20.8999C1.10345 21.8514 5.72083 24.1999 12.6897 24.1999C14.4772 24.1999 16.3007 24.0355 17.9862 23.7231C18.412 22.3575 19.2391 21.1508 20.3604 20.259C21.4817 19.3672 22.8457 18.8314 24.2759 18.7208V14.8703C22.2157 16.4119 17.5514 17.5999 12.6897 17.5999C7.82786 17.5999 3.16359 16.4119 1.10345 14.8703Z" fill="#0A0D12"/>
<path d="M12.6897 33.0001C6.16662 33.0001 0 30.8617 0 28.6001V20.9001C0 20.7542 0.0581279 20.6143 0.161596 20.5112C0.265065 20.408 0.405398 20.3501 0.551724 20.3501C0.69805 20.3501 0.838384 20.408 0.941852 20.5112C1.04532 20.6143 1.10345 20.7542 1.10345 20.9001C1.10345 21.8516 5.72083 24.2001 12.6897 24.2001C14.5948 24.2001 16.5401 24.0131 18.3161 23.66C18.4077 23.6421 18.5023 23.6475 18.5912 23.6759C18.68 23.7042 18.7603 23.7545 18.8244 23.8221C18.8885 23.8897 18.9344 23.9724 18.9578 24.0624C18.9812 24.1524 18.9814 24.2469 18.9583 24.337C18.8259 24.848 18.7586 25.3573 18.7586 25.8501C18.7586 27.8037 19.7175 29.6473 21.3236 30.7841C21.4069 30.8431 21.4722 30.9239 21.5122 31.0176C21.5522 31.1114 21.5653 31.2143 21.55 31.315C21.5347 31.4157 21.4917 31.5102 21.4257 31.588C21.3597 31.6658 21.2734 31.7237 21.1763 31.7554C18.7183 32.5579 15.7043 33.0001 12.6897 33.0001ZM1.10345 22.5704V28.6001C1.10345 29.5516 5.72083 31.9001 12.6897 31.9001C15.2017 31.9001 17.707 31.5833 19.8599 30.9997C19.1642 30.3331 18.6104 29.5335 18.2316 28.6487C17.8528 27.7639 17.6567 26.8121 17.6552 25.8501C17.6552 25.5327 17.6783 25.211 17.7241 24.887C16.0977 25.1609 14.4083 25.3001 12.6897 25.3001C7.82786 25.3001 3.16359 24.1121 1.10345 22.5704Z" fill="#0A0D12"/>
<path d="M22.0001 32.2334C27.0979 32.2334 31.2305 28.1137 31.2305 23.0318C31.2305 17.95 27.0979 13.8303 22.0001 13.8303C16.9024 13.8303 12.7698 17.95 12.7698 23.0318C12.7698 28.1137 16.9024 32.2334 22.0001 32.2334Z" fill="#FDB022"/>
<path d="M22.0006 16.8972L23.6644 20.5633L27.385 21.498L24.6928 24.0537L25.8466 27.6323L22.0006 26.0987L18.1546 27.6323L19.3084 24.0537L16.6162 21.498L20.3368 20.5633L22.0006 16.8972Z" fill="#FEDF89"/>
<path d="M21.9996 32.9999C16.486 32.9999 12 28.5279 12 23.0315C12 17.5352 16.486 13.0632 21.9996 13.0632C27.5132 13.0632 31.9991 17.5352 31.9991 23.0315C31.9991 28.5279 27.5132 32.9999 21.9996 32.9999ZM21.9996 14.5968C17.3344 14.5968 13.5384 18.3809 13.5384 23.0315C13.5384 27.6821 17.3344 31.4663 21.9996 31.4663C26.6647 31.4663 30.4607 27.6821 30.4607 23.0315C30.4607 18.3809 26.6647 14.5968 21.9996 14.5968Z" fill="#0A0D12"/>
<path d="M25.8469 28.3992C25.7492 28.3994 25.6523 28.3809 25.5615 28.3448L22.0009 26.9247L18.4403 28.3448C18.3048 28.3987 18.1567 28.4131 18.0133 28.3863C17.87 28.3595 17.7372 28.2926 17.6305 28.1934C17.5238 28.0942 17.4476 27.9668 17.4108 27.8261C17.374 27.6853 17.3781 27.5371 17.4227 27.3986L18.4288 24.2777L16.0858 22.0548C15.9859 21.9602 15.9134 21.8406 15.8757 21.7085C15.8381 21.5764 15.8367 21.4366 15.8718 21.3038C15.9068 21.171 15.977 21.05 16.075 20.9535C16.173 20.8569 16.2952 20.7884 16.4289 20.7551L19.7895 19.9108L21.3002 16.5814C21.3607 16.4466 21.459 16.3321 21.5834 16.2518C21.7077 16.1714 21.8527 16.1287 22.0009 16.1287C22.1491 16.1287 22.2941 16.1714 22.4184 16.2518C22.5428 16.3321 22.6411 16.4466 22.7017 16.5814L24.2124 19.9108L27.573 20.7551C27.7066 20.7884 27.8288 20.8569 27.9268 20.9535C28.0248 21.05 28.095 21.171 28.1301 21.3038C28.1651 21.4366 28.1638 21.5764 28.1261 21.7085C28.0885 21.8406 28.0159 21.9602 27.916 22.0548L25.5731 24.2777L26.5792 27.3986C26.6158 27.5135 26.6247 27.6355 26.6052 27.7545C26.5858 27.8735 26.5385 27.9863 26.4672 28.0837C26.3959 28.1812 26.3026 28.2605 26.1948 28.3153C26.0871 28.3701 25.9679 28.3989 25.8469 28.3992ZM22.0009 25.3321C22.0987 25.3318 22.1955 25.3503 22.2863 25.3865L24.6139 26.3151L23.9601 24.2877C23.916 24.1505 23.9115 24.0036 23.9471 23.864C23.9828 23.7243 24.0571 23.5975 24.1616 23.4979L25.8438 21.9014L23.4762 21.3072C23.3639 21.279 23.2594 21.2258 23.1706 21.1517C23.0818 21.0777 23.0109 20.9845 22.9632 20.8793L22.0009 18.7576L21.0379 20.8801C20.99 20.9852 20.919 21.0782 20.8302 21.1523C20.7414 21.2263 20.6371 21.2795 20.5248 21.3079L18.1572 21.9022L19.8395 23.4987C20.0533 23.7019 20.1318 24.0086 20.041 24.2885L19.3872 26.3159L21.7148 25.3873C21.8056 25.3505 21.9028 25.3317 22.0009 25.3321Z" fill="#0A0D12"/>
</g>
<defs>
<clipPath id="clip0_2421_21729">
<rect width="32" height="33" fill="white"/>
</clipPath>
</defs>
</svg>
