<svg width="24" height="25" viewBox="0 0 24 25" fill="none" xmlns="http://www.w3.org/2000/svg">
<path d="M12 3C17.2469 3 21.5 7.25314 21.5 12.5C21.5 17.7469 17.2469 22 12 22C6.75314 22 2.5 17.7469 2.5 12.5C2.5 7.25314 6.75314 3 12 3ZM12 4C9.74566 4 7.58332 4.8952 5.98926 6.48926C4.3952 8.08332 3.5 10.2457 3.5 12.5C3.5 14.7543 4.3952 16.9167 5.98926 18.5107C7.58332 20.1048 9.74566 21 12 21C14.2543 21 16.4167 20.1048 18.0107 18.5107C19.6048 16.9167 20.5 14.7543 20.5 12.5C20.5 10.2457 19.6048 8.08332 18.0107 6.48926C16.4167 4.8952 14.2543 4 12 4ZM12.5 12V17H11.5V12H12.5ZM12.5 8V9H11.5V8H12.5Z" fill="#0A0D12" stroke="#6172F3"/>
</svg>
