<svg width="13" height="14" viewBox="0 0 13 14" fill="none" xmlns="http://www.w3.org/2000/svg">
<path d="M6.05111 1.01511C6.05111 1.84654 5.98397 2.49206 5.82905 3.28218C5.20935 6.39618 3.36057 9.14869 0.695855 10.9148L0.349854 11.1421L0.515107 11.3435C0.732003 11.6068 1.1503 12.0148 1.4395 12.2472C2.92678 13.4401 4.81171 13.9307 6.71729 13.6209C8.58156 13.3213 10.2599 12.1956 11.2773 10.5688C11.4683 10.2642 11.7472 9.69609 11.866 9.36559C12.4599 7.74403 12.4134 5.97788 11.7369 4.39765C11.2256 3.20472 10.3064 2.12024 9.19093 1.41275C8.36466 0.886004 7.34732 0.524511 6.42293 0.426392C6.29899 0.416063 6.16472 0.400571 6.12857 0.395407L6.05627 0.385078V1.00994L6.05111 1.01511Z" fill="#FFA101"/>
</svg>
