<svg width="21" height="22" viewBox="0 0 21 22" fill="none" xmlns="http://www.w3.org/2000/svg">
<path d="M9.25418 0.846836C8.51571 0.908806 7.68427 1.07922 6.95612 1.31678C3.66138 2.39609 1.10511 5.15376 0.284005 8.51564C0.0826022 9.33158 0.0154679 9.85833 -2.46624e-05 10.7621C-0.0155172 11.6606 0.0257962 12.1564 0.185886 12.9517C1.01732 17.1295 4.44117 20.3726 8.6603 20.9768C9.19221 21.0543 9.49174 21.0749 10.1424 21.0749C11.4903 21.0749 12.6316 20.8529 13.8555 20.3674C15.1723 19.8459 16.2981 19.0919 17.3258 18.0539C19.2727 16.0915 20.3107 13.4681 20.2384 10.7104C20.2229 10.1424 20.1868 9.75505 20.099 9.2283C19.5619 6.07815 17.5427 3.35146 14.6662 1.89516C13.5973 1.35809 12.4921 1.02758 11.2527 0.877821C10.9119 0.836508 9.61568 0.815851 9.25418 0.852V0.846836ZM10.6588 2.23084C12.1255 2.33412 13.4682 2.76275 14.6817 3.51155C17.5479 5.28287 19.1539 8.54146 18.7924 11.8569C18.6788 12.9155 18.3999 13.8709 17.9248 14.8263C17.2638 16.1483 16.3033 17.2586 15.0484 18.1417C14.4442 18.5651 13.5766 18.9938 12.8433 19.2365C11.5729 19.6548 10.1889 19.7787 8.87204 19.5825C5.99559 19.1642 3.50645 17.3361 2.24639 14.7075C1.33233 12.7967 1.14126 10.6278 1.70932 8.59311C2.11729 7.13681 2.88159 5.84576 3.97639 4.76128C4.44117 4.30167 4.75618 4.0383 5.2726 3.6923C6.85284 2.63364 8.79457 2.10173 10.6588 2.236V2.23084Z" fill="#FFA101"/>
</svg>
