<svg width="135" height="23" viewBox="0 0 135 23" fill="none" xmlns="http://www.w3.org/2000/svg">
<path d="M7.79619 18.5444V21.9166H0.0757446V18.5444H2.24986V4.43066H0.0757446V1.05845H20.8409V6.93012H17.7734L17.4945 4.43066H5.59625V9.23851H15.4908V12.6107H5.59625V18.5444H7.79619ZM22.1836 13.4318C22.1836 12.0633 22.4418 10.8342 22.9634 9.7446C23.485 8.66012 24.1821 7.7409 25.0549 6.99209C25.9276 6.24328 26.9346 5.67006 28.0656 5.27758C29.1965 4.87994 30.3791 4.6837 31.6031 4.6837C32.8683 4.6837 34.0664 4.87994 35.1973 5.27758C36.3283 5.67006 37.325 6.24328 38.1771 6.99209C39.0343 7.7409 39.7108 8.66012 40.2117 9.7446C40.7127 10.8342 40.9605 12.0633 40.9605 13.4318C40.9605 14.7642 40.7127 15.9674 40.2117 17.0467C39.7108 18.1261 39.0343 19.0401 38.1771 19.7993C37.325 20.5584 36.3283 21.1471 35.1973 21.5551C34.0664 21.9682 32.8683 22.1748 31.6031 22.1748C30.3791 22.1748 29.1965 21.9682 28.0656 21.5551C26.9346 21.1419 25.9276 20.5584 25.0549 19.7993C24.1821 19.0401 23.485 18.1261 22.9634 17.0467C22.447 15.9674 22.1836 14.7642 22.1836 13.4318ZM31.5979 8.11272C30.7613 8.11272 29.9815 8.24182 29.2585 8.50519C28.5355 8.7634 27.9158 9.1249 27.3942 9.58451C26.8727 10.0441 26.4647 10.6019 26.1652 11.2577C25.8708 11.9136 25.7211 12.6365 25.7211 13.4267C25.7211 14.2116 25.8708 14.9346 26.1652 15.5904C26.4595 16.2463 26.8727 16.8092 27.3942 17.2791C27.9158 17.7491 28.5355 18.1106 29.2585 18.3584C29.9815 18.6115 30.7665 18.7354 31.5979 18.7354C32.4913 18.7354 33.2969 18.6115 34.0096 18.3584C34.7222 18.1054 35.3368 17.7439 35.848 17.2791C36.3593 16.8092 36.7517 16.2463 37.0306 15.5904C37.3095 14.9346 37.4489 14.2116 37.4489 13.4267C37.4489 12.6365 37.3095 11.9136 37.0306 11.2577C36.7517 10.6019 36.3593 10.0441 35.848 9.58451C35.3368 9.1249 34.7222 8.7634 34.0096 8.50519C33.2969 8.24182 32.4913 8.11272 31.5979 8.11272ZM59.5568 10.0544H56.6287L56.2672 8.42257C55.6733 8.27281 55.1569 8.18501 54.7231 8.15919C54.2841 8.12821 53.8503 8.11788 53.4269 8.11788C52.425 8.11788 51.4438 8.30379 50.4833 8.68078C49.5279 9.05776 48.7688 9.55352 48.2111 10.1681V18.5495H50.442V21.9217H42.6699V18.5495H44.8698V8.37093H42.6699V4.99872H47.6533L47.989 7.0489C48.4538 6.65642 48.9547 6.31558 49.4969 6.02122C50.034 5.73203 50.5762 5.48931 51.1288 5.29307C51.6762 5.09684 52.203 4.94707 52.7142 4.84379C53.2255 4.74051 53.6954 4.68887 54.124 4.68887C55.4616 4.68887 56.5512 4.76633 57.3981 4.91609C58.2399 5.06585 58.9629 5.29307 59.5568 5.5926V10.0648V10.0544ZM67.9692 18.7406C68.2119 18.7406 68.4133 18.7303 68.5683 18.7148C68.7232 18.6941 68.8678 18.658 69.002 18.6012C69.1311 18.5444 69.2551 18.4721 69.379 18.3791C69.4978 18.2861 69.6527 18.1519 69.8386 17.9866L71.9818 20.5429C71.5531 20.8992 71.1917 21.1833 70.8921 21.3847C70.5978 21.5912 70.3086 21.7513 70.0297 21.8649C69.7508 21.9785 69.4513 22.0457 69.126 22.0767C68.8006 22.1025 68.4133 22.118 67.9692 22.118C67.2101 22.118 66.5181 21.9734 65.8932 21.6842C65.2735 21.395 64.7313 20.9922 64.2768 20.4913C63.8224 19.9852 63.4712 19.3964 63.2182 18.7354C62.9651 18.0693 62.8412 17.3514 62.8412 16.582V8.37093H60.9201V4.99872H62.8412L63.3989 0.836388H66.1876V4.99872H70.3396V8.37093H66.1876V16.1843C66.1876 16.5045 66.2237 16.8144 66.3012 17.1139C66.3735 17.4134 66.4819 17.6871 66.6214 17.9298C66.7608 18.1725 66.9415 18.3688 67.1636 18.5185C67.3857 18.6683 67.6594 18.7406 67.9744 18.7406H67.9692ZM72.7357 8.37093V4.99872H78.3079V15.0637C78.3079 15.8538 78.4163 16.4839 78.6281 16.9641C78.8398 17.4444 79.16 17.811 79.5783 18.0641C79.9966 18.3171 80.513 18.4876 81.1275 18.5702C81.7369 18.6528 82.4547 18.6941 83.2707 18.6941C84.0143 18.6941 84.7579 18.565 85.5016 18.3016C86.2452 18.0383 86.9114 17.6819 87.5053 17.2378V8.37093H85.2744V4.99872H90.8465V18.5495H93.0516V21.9217H88.3419L87.9546 20.3776C87.3607 20.8114 86.5654 21.2091 85.5687 21.5706C84.5772 21.9372 83.4359 22.118 82.1552 22.118C81.1689 22.118 80.2393 22.0044 79.3666 21.7823C78.4938 21.5602 77.7347 21.1781 77.084 20.641C76.4333 20.1091 75.9169 19.3861 75.5347 18.4772C75.1526 17.5683 74.9615 16.427 74.9615 15.0585V8.36576H72.7306L72.7357 8.37093ZM114.989 18.5444V21.9166H109.417V11.738C109.417 10.9479 109.308 10.3178 109.097 9.83755C108.885 9.35728 108.565 8.99063 108.147 8.73758C107.728 8.48454 107.212 8.31412 106.597 8.23149C105.988 8.14887 105.27 8.10755 104.454 8.10755C103.695 8.10755 102.946 8.25731 102.208 8.55684C101.474 8.85636 100.813 9.23334 100.219 9.68263V18.5392H102.45V21.9114H94.6732V18.5392H96.8783V8.37093H94.6732V4.99872H99.6618L99.8838 6.46018C100.478 6.04704 101.268 5.6494 102.254 5.26725C103.241 4.87994 104.346 4.68887 105.57 4.68887C106.556 4.68887 107.486 4.80248 108.358 5.0297C109.231 5.25176 109.99 5.63391 110.641 6.16582C111.291 6.7029 111.808 7.42588 112.19 8.33478C112.572 9.24367 112.763 10.385 112.763 11.7535V18.5547H114.994L114.989 18.5444ZM135 21.9217H130.291L129.733 19.4481C129.03 20.2382 128.116 20.8786 127.006 21.3795C125.891 21.8753 124.636 22.1231 123.241 22.1231C121.847 22.1231 120.716 21.9476 119.838 21.6016C118.965 21.2556 118.279 20.8114 117.778 20.264C117.277 19.7218 116.936 19.1279 116.76 18.4927C116.585 17.8524 116.492 17.2327 116.492 16.6336C116.492 15.828 116.652 15.105 116.977 14.4543C117.303 13.8088 117.731 13.2562 118.263 12.7966C118.79 12.337 119.389 11.9858 120.06 11.7431C120.726 11.5004 121.418 11.3765 122.126 11.3765H129.454C129.438 10.7981 129.366 10.292 129.247 9.85821C129.129 9.42958 128.912 9.07325 128.592 8.79439C128.276 8.51552 127.843 8.30379 127.295 8.17469C126.748 8.04558 126.046 7.97845 125.193 7.97845C124.414 7.97845 123.655 8.02492 122.921 8.11788C122.188 8.21084 121.522 8.39158 120.928 8.65495L120.737 10.6225H117.669V6.87848C118.093 6.5583 118.599 6.26394 119.188 5.99024C119.771 5.7217 120.396 5.48415 121.057 5.28791C121.713 5.09167 122.4 4.94191 123.107 4.83863C123.809 4.73534 124.507 4.6837 125.199 4.6837C126.479 4.6837 127.595 4.80248 128.545 5.03487C129.49 5.26725 130.28 5.65457 130.915 6.19164C131.545 6.72355 132.021 7.43621 132.336 8.32961C132.651 9.21785 132.805 10.3127 132.805 11.6089V18.5547H135.011V21.9269L135 21.9217ZM120.174 16.7214C120.174 17.3411 120.422 17.8627 120.912 18.2861C121.403 18.7096 122.167 18.9213 123.21 18.9213C124.155 18.9213 124.982 18.8284 125.689 18.6425C126.397 18.4566 127.001 18.1932 127.502 17.8524C128.003 17.5115 128.416 17.1087 128.731 16.6439C129.046 16.174 129.289 15.6576 129.454 15.0999V14.4853H122.431C121.723 14.4853 121.171 14.7074 120.773 15.1463C120.375 15.5853 120.174 16.1172 120.174 16.7369V16.7214Z" fill="#D0021B"/>
</svg>
